<svg xmlns="http://www.w3.org/2000/svg" xmlns:xlink="http://www.w3.org/1999/xlink" width="1200" zoomAndPan="magnify" viewBox="0 0 900 89.999999" height="120" preserveAspectRatio="xMidYMid meet" version="1.0"><defs><g/><clipPath id="076540058d"><path d="M 244.085938 19.691406 L 291.335938 19.691406 L 291.335938 69.941406 L 244.085938 69.941406 Z M 244.085938 19.691406 " clip-rule="nonzero"/></clipPath></defs><g fill="#000000" fill-opacity="1"><g transform="translate(37.20992, 68.728364)"><g><path d="M 31.734375 -12.1875 C 31.734375 -9.53125 31.082031 -7.242188 29.78125 -5.328125 C 28.488281 -3.410156 26.628906 -1.941406 24.203125 -0.921875 C 21.785156 0.0976562 18.90625 0.609375 15.5625 0.609375 C 13.925781 0.609375 12.363281 0.515625 10.875 0.328125 C 9.382812 0.148438 7.976562 -0.113281 6.65625 -0.46875 C 5.34375 -0.832031 4.144531 -1.269531 3.0625 -1.78125 L 3.0625 -8.703125 C 4.875 -7.898438 6.90625 -7.175781 9.15625 -6.53125 C 11.40625 -5.894531 13.691406 -5.578125 16.015625 -5.578125 C 17.910156 -5.578125 19.484375 -5.828125 20.734375 -6.328125 C 21.992188 -6.828125 22.929688 -7.539062 23.546875 -8.46875 C 24.160156 -9.394531 24.46875 -10.484375 24.46875 -11.734375 C 24.46875 -13.054688 24.109375 -14.175781 23.390625 -15.09375 C 22.679688 -16.007812 21.601562 -16.847656 20.15625 -17.609375 C 18.71875 -18.378906 16.921875 -19.207031 14.765625 -20.09375 C 13.296875 -20.6875 11.890625 -21.359375 10.546875 -22.109375 C 9.210938 -22.867188 8.023438 -23.757812 6.984375 -24.78125 C 5.941406 -25.800781 5.117188 -27.007812 4.515625 -28.40625 C 3.910156 -29.800781 3.609375 -31.445312 3.609375 -33.34375 C 3.609375 -35.875 4.21875 -38.035156 5.4375 -39.828125 C 6.65625 -41.628906 8.367188 -43.007812 10.578125 -43.96875 C 12.796875 -44.9375 15.382812 -45.421875 18.34375 -45.421875 C 20.6875 -45.421875 22.894531 -45.175781 24.96875 -44.6875 C 27.039062 -44.195312 29.078125 -43.5 31.078125 -42.59375 L 28.75 -36.6875 C 26.914062 -37.445312 25.132812 -38.050781 23.40625 -38.5 C 21.6875 -38.945312 19.925781 -39.171875 18.125 -39.171875 C 16.570312 -39.171875 15.253906 -38.9375 14.171875 -38.46875 C 13.097656 -38 12.28125 -37.335938 11.71875 -36.484375 C 11.15625 -35.640625 10.875 -34.632812 10.875 -33.46875 C 10.875 -32.164062 11.191406 -31.066406 11.828125 -30.171875 C 12.472656 -29.285156 13.472656 -28.472656 14.828125 -27.734375 C 16.191406 -27.003906 17.945312 -26.191406 20.09375 -25.296875 C 22.5625 -24.273438 24.65625 -23.203125 26.375 -22.078125 C 28.101562 -20.953125 29.425781 -19.609375 30.34375 -18.046875 C 31.269531 -16.484375 31.734375 -14.53125 31.734375 -12.1875 Z M 31.734375 -12.1875 "/></g></g></g><g fill="#000000" fill-opacity="1"><g transform="translate(71.686538, 68.728364)"><g><path d="M 35.15625 -17.03125 C 35.15625 -14.207031 34.785156 -11.703125 34.046875 -9.515625 C 33.316406 -7.335938 32.242188 -5.5 30.828125 -4 C 29.421875 -2.5 27.726562 -1.351562 25.75 -0.5625 C 23.769531 0.21875 21.535156 0.609375 19.046875 0.609375 C 16.722656 0.609375 14.585938 0.21875 12.640625 -0.5625 C 10.703125 -1.351562 9.023438 -2.5 7.609375 -4 C 6.191406 -5.5 5.09375 -7.335938 4.3125 -9.515625 C 3.539062 -11.703125 3.15625 -14.207031 3.15625 -17.03125 C 3.15625 -20.757812 3.800781 -23.925781 5.09375 -26.53125 C 6.394531 -29.132812 8.25 -31.117188 10.65625 -32.484375 C 13.0625 -33.859375 15.929688 -34.546875 19.265625 -34.546875 C 22.390625 -34.546875 25.144531 -33.859375 27.53125 -32.484375 C 29.914062 -31.117188 31.78125 -29.128906 33.125 -26.515625 C 34.476562 -23.898438 35.15625 -20.738281 35.15625 -17.03125 Z M 10.5625 -17.03125 C 10.5625 -14.5625 10.863281 -12.445312 11.46875 -10.6875 C 12.070312 -8.925781 13.003906 -7.582031 14.265625 -6.65625 C 15.535156 -5.726562 17.171875 -5.265625 19.171875 -5.265625 C 21.171875 -5.265625 22.800781 -5.726562 24.0625 -6.65625 C 25.332031 -7.582031 26.265625 -8.925781 26.859375 -10.6875 C 27.453125 -12.445312 27.75 -14.5625 27.75 -17.03125 C 27.75 -19.5 27.453125 -21.59375 26.859375 -23.3125 C 26.265625 -25.039062 25.332031 -26.359375 24.0625 -27.265625 C 22.800781 -28.179688 21.160156 -28.640625 19.140625 -28.640625 C 16.160156 -28.640625 13.984375 -27.632812 12.609375 -25.625 C 11.242188 -23.625 10.5625 -20.757812 10.5625 -17.03125 Z M 10.5625 -17.03125 "/></g></g></g><g fill="#000000" fill-opacity="1"><g transform="translate(109.959871, 68.728364)"><g><path d="M 34.703125 -33.90625 L 34.703125 0 L 29.03125 0 L 28.046875 -4.5625 L 27.65625 -4.5625 C 26.9375 -3.394531 26.023438 -2.425781 24.921875 -1.65625 C 23.828125 -0.894531 22.601562 -0.328125 21.25 0.046875 C 19.90625 0.421875 18.488281 0.609375 17 0.609375 C 14.445312 0.609375 12.265625 0.175781 10.453125 -0.6875 C 8.648438 -1.550781 7.269531 -2.890625 6.3125 -4.703125 C 5.351562 -6.523438 4.875 -8.878906 4.875 -11.765625 L 4.875 -33.90625 L 12.09375 -33.90625 L 12.09375 -13.109375 C 12.09375 -10.472656 12.628906 -8.5 13.703125 -7.1875 C 14.773438 -5.882812 16.445312 -5.234375 18.71875 -5.234375 C 20.894531 -5.234375 22.625 -5.679688 23.90625 -6.578125 C 25.195312 -7.484375 26.113281 -8.8125 26.65625 -10.5625 C 27.195312 -12.320312 27.46875 -14.476562 27.46875 -17.03125 L 27.46875 -33.90625 Z M 34.703125 -33.90625 "/></g></g></g><g fill="#000000" fill-opacity="1"><g transform="translate(149.794761, 68.728364)"><g><path d="M 22.8125 -34.546875 C 26.632812 -34.546875 29.609375 -33.5625 31.734375 -31.59375 C 33.867188 -29.625 34.9375 -26.460938 34.9375 -22.109375 L 34.9375 0 L 27.75 0 L 27.75 -20.765625 C 27.75 -23.398438 27.207031 -25.375 26.125 -26.6875 C 25.039062 -28.007812 23.363281 -28.671875 21.09375 -28.671875 C 17.8125 -28.671875 15.53125 -27.65625 14.25 -25.625 C 12.976562 -23.601562 12.34375 -20.675781 12.34375 -16.84375 L 12.34375 0 L 5.140625 0 L 5.140625 -33.90625 L 10.75 -33.90625 L 11.765625 -29.3125 L 12.15625 -29.3125 C 12.894531 -30.488281 13.804688 -31.457031 14.890625 -32.21875 C 15.984375 -32.988281 17.207031 -33.566406 18.5625 -33.953125 C 19.925781 -34.347656 21.34375 -34.546875 22.8125 -34.546875 Z M 22.8125 -34.546875 "/></g></g></g><g fill="#000000" fill-opacity="1"><g transform="translate(189.629651, 68.728364)"><g><path d="M 16.53125 0.609375 C 12.488281 0.609375 9.25 -0.863281 6.8125 -3.8125 C 4.375 -6.757812 3.15625 -11.113281 3.15625 -16.875 C 3.15625 -22.695312 4.394531 -27.097656 6.875 -30.078125 C 9.351562 -33.054688 12.625 -34.546875 16.6875 -34.546875 C 18.40625 -34.546875 19.90625 -34.316406 21.1875 -33.859375 C 22.476562 -33.398438 23.585938 -32.78125 24.515625 -32 C 25.441406 -31.226562 26.234375 -30.363281 26.890625 -29.40625 L 27.21875 -29.40625 C 27.125 -30.03125 27.007812 -30.941406 26.875 -32.140625 C 26.738281 -33.335938 26.671875 -34.445312 26.671875 -35.46875 L 26.671875 -47.65625 L 33.90625 -47.65625 L 33.90625 0 L 28.265625 0 L 26.984375 -4.625 L 26.671875 -4.625 C 26.054688 -3.644531 25.285156 -2.757812 24.359375 -1.96875 C 23.429688 -1.1875 22.328125 -0.5625 21.046875 -0.09375 C 19.773438 0.375 18.269531 0.609375 16.53125 0.609375 Z M 18.5625 -5.234375 C 21.644531 -5.234375 23.816406 -6.117188 25.078125 -7.890625 C 26.347656 -9.671875 27.003906 -12.335938 27.046875 -15.890625 L 27.046875 -16.84375 C 27.046875 -20.644531 26.429688 -23.5625 25.203125 -25.59375 C 23.972656 -27.625 21.738281 -28.640625 18.5 -28.640625 C 15.90625 -28.640625 13.925781 -27.59375 12.5625 -25.5 C 11.207031 -23.40625 10.53125 -20.488281 10.53125 -16.75 C 10.53125 -13.007812 11.207031 -10.15625 12.5625 -8.1875 C 13.925781 -6.21875 15.925781 -5.234375 18.5625 -5.234375 Z M 18.5625 -5.234375 "/></g></g></g><g clip-path="url(#076540058d)"><path fill="#ffaa05" d="M 269.410156 68.496094 L 269.410156 21.496094 C 269.410156 20.5 268.597656 19.691406 267.601562 19.691406 C 266.601562 19.691406 265.792969 20.5 265.792969 21.496094 L 265.792969 68.496094 C 265.792969 69.492188 266.601562 70.304688 267.601562 70.304688 C 268.597656 70.304688 269.410156 69.492188 269.410156 68.496094 Z M 276.640625 59.457031 L 276.640625 30.535156 C 276.640625 29.539062 275.828125 28.726562 274.832031 28.726562 C 273.832031 28.726562 273.023438 29.539062 273.023438 30.535156 L 273.023438 59.457031 C 273.023438 60.457031 273.832031 61.265625 274.832031 61.265625 C 275.828125 61.265625 276.640625 60.457031 276.640625 59.457031 Z M 262.179688 59.457031 L 262.179688 30.535156 C 262.179688 29.539062 261.367188 28.726562 260.371094 28.726562 C 259.371094 28.726562 258.5625 29.539062 258.5625 30.535156 L 258.5625 59.457031 C 258.5625 60.457031 259.371094 61.265625 260.371094 61.265625 C 261.367188 61.265625 262.179688 60.457031 262.179688 59.457031 Z M 283.871094 54.035156 L 283.871094 35.957031 C 283.871094 34.960938 283.058594 34.152344 282.0625 34.152344 C 281.0625 34.152344 280.253906 34.960938 280.253906 35.957031 L 280.253906 54.035156 C 280.253906 55.03125 281.0625 55.84375 282.0625 55.84375 C 283.058594 55.84375 283.871094 55.03125 283.871094 54.035156 Z M 254.949219 54.035156 L 254.949219 35.957031 C 254.949219 34.960938 254.136719 34.152344 253.140625 34.152344 C 252.140625 34.152344 251.332031 34.960938 251.332031 35.957031 L 251.332031 54.035156 C 251.332031 55.03125 252.140625 55.84375 253.140625 55.84375 C 254.136719 55.84375 254.949219 55.03125 254.949219 54.035156 Z M 247.71875 50.417969 L 247.71875 39.574219 C 247.71875 38.578125 246.90625 37.765625 245.910156 37.765625 C 244.910156 37.765625 244.101562 38.578125 244.101562 39.574219 L 244.101562 50.417969 C 244.101562 51.417969 244.910156 52.226562 245.910156 52.226562 C 246.90625 52.226562 247.71875 51.417969 247.71875 50.417969 Z M 291.101562 50.417969 L 291.101562 39.574219 C 291.101562 38.578125 290.289062 37.765625 289.292969 37.765625 C 288.292969 37.765625 287.484375 38.578125 287.484375 39.574219 L 287.484375 50.417969 C 287.484375 51.417969 288.292969 52.226562 289.292969 52.226562 C 290.289062 52.226562 291.101562 51.417969 291.101562 50.417969 Z M 291.101562 50.417969 " fill-opacity="1" fill-rule="evenodd"/></g><g fill="#000000" fill-opacity="1"><g transform="translate(302.970838, 68.728364)"><g><path d="M 31.734375 -12.1875 C 31.734375 -9.53125 31.082031 -7.242188 29.78125 -5.328125 C 28.488281 -3.410156 26.628906 -1.941406 24.203125 -0.921875 C 21.785156 0.0976562 18.90625 0.609375 15.5625 0.609375 C 13.925781 0.609375 12.363281 0.515625 10.875 0.328125 C 9.382812 0.148438 7.976562 -0.113281 6.65625 -0.46875 C 5.34375 -0.832031 4.144531 -1.269531 3.0625 -1.78125 L 3.0625 -8.703125 C 4.875 -7.898438 6.90625 -7.175781 9.15625 -6.53125 C 11.40625 -5.894531 13.691406 -5.578125 16.015625 -5.578125 C 17.910156 -5.578125 19.484375 -5.828125 20.734375 -6.328125 C 21.992188 -6.828125 22.929688 -7.539062 23.546875 -8.46875 C 24.160156 -9.394531 24.46875 -10.484375 24.46875 -11.734375 C 24.46875 -13.054688 24.109375 -14.175781 23.390625 -15.09375 C 22.679688 -16.007812 21.601562 -16.847656 20.15625 -17.609375 C 18.71875 -18.378906 16.921875 -19.207031 14.765625 -20.09375 C 13.296875 -20.6875 11.890625 -21.359375 10.546875 -22.109375 C 9.210938 -22.867188 8.023438 -23.757812 6.984375 -24.78125 C 5.941406 -25.800781 5.117188 -27.007812 4.515625 -28.40625 C 3.910156 -29.800781 3.609375 -31.445312 3.609375 -33.34375 C 3.609375 -35.875 4.21875 -38.035156 5.4375 -39.828125 C 6.65625 -41.628906 8.367188 -43.007812 10.578125 -43.96875 C 12.796875 -44.9375 15.382812 -45.421875 18.34375 -45.421875 C 20.6875 -45.421875 22.894531 -45.175781 24.96875 -44.6875 C 27.039062 -44.195312 29.078125 -43.5 31.078125 -42.59375 L 28.75 -36.6875 C 26.914062 -37.445312 25.132812 -38.050781 23.40625 -38.5 C 21.6875 -38.945312 19.925781 -39.171875 18.125 -39.171875 C 16.570312 -39.171875 15.253906 -38.9375 14.171875 -38.46875 C 13.097656 -38 12.28125 -37.335938 11.71875 -36.484375 C 11.15625 -35.640625 10.875 -34.632812 10.875 -33.46875 C 10.875 -32.164062 11.191406 -31.066406 11.828125 -30.171875 C 12.472656 -29.285156 13.472656 -28.472656 14.828125 -27.734375 C 16.191406 -27.003906 17.945312 -26.191406 20.09375 -25.296875 C 22.5625 -24.273438 24.65625 -23.203125 26.375 -22.078125 C 28.101562 -20.953125 29.425781 -19.609375 30.34375 -18.046875 C 31.269531 -16.484375 31.734375 -14.53125 31.734375 -12.1875 Z M 31.734375 -12.1875 "/></g></g></g><g fill="#000000" fill-opacity="1"><g transform="translate(337.447456, 68.728364)"><g><path d="M 12.34375 -33.90625 L 12.34375 0 L 5.140625 0 L 5.140625 -33.90625 Z M 8.796875 -46.890625 C 9.890625 -46.890625 10.835938 -46.59375 11.640625 -46 C 12.453125 -45.40625 12.859375 -44.382812 12.859375 -42.9375 C 12.859375 -41.507812 12.453125 -40.492188 11.640625 -39.890625 C 10.835938 -39.285156 9.890625 -38.984375 8.796875 -38.984375 C 7.648438 -38.984375 6.679688 -39.285156 5.890625 -39.890625 C 5.109375 -40.492188 4.71875 -41.507812 4.71875 -42.9375 C 4.71875 -44.382812 5.109375 -45.40625 5.890625 -46 C 6.679688 -46.59375 7.648438 -46.890625 8.796875 -46.890625 Z M 8.796875 -46.890625 "/></g></g></g><g fill="#000000" fill-opacity="1"><g transform="translate(354.93072, 68.728364)"><g><path d="M 14.828125 15.0625 C 10.234375 15.0625 6.707031 14.234375 4.25 12.578125 C 1.800781 10.929688 0.578125 8.617188 0.578125 5.640625 C 0.578125 3.554688 1.226562 1.789062 2.53125 0.34375 C 3.84375 -1.09375 5.710938 -2.085938 8.140625 -2.640625 C 7.222656 -3.046875 6.429688 -3.679688 5.765625 -4.546875 C 5.109375 -5.410156 4.78125 -6.375 4.78125 -7.4375 C 4.78125 -8.707031 5.132812 -9.789062 5.84375 -10.6875 C 6.5625 -11.582031 7.632812 -12.453125 9.0625 -13.296875 C 7.289062 -14.046875 5.867188 -15.269531 4.796875 -16.96875 C 3.722656 -18.675781 3.1875 -20.6875 3.1875 -23 C 3.1875 -25.445312 3.707031 -27.53125 4.75 -29.25 C 5.789062 -30.976562 7.3125 -32.296875 9.3125 -33.203125 C 11.3125 -34.117188 13.726562 -34.578125 16.5625 -34.578125 C 17.175781 -34.578125 17.84375 -34.539062 18.5625 -34.46875 C 19.289062 -34.394531 19.96875 -34.3125 20.59375 -34.21875 C 21.21875 -34.125 21.691406 -34.03125 22.015625 -33.9375 L 33.75 -33.9375 L 33.75 -29.921875 L 27.984375 -28.84375 C 28.535156 -28.070312 28.972656 -27.191406 29.296875 -26.203125 C 29.628906 -25.210938 29.796875 -24.132812 29.796875 -22.96875 C 29.796875 -19.457031 28.585938 -16.695312 26.171875 -14.6875 C 23.753906 -12.675781 20.421875 -11.671875 16.171875 -11.671875 C 15.148438 -11.710938 14.160156 -11.789062 13.203125 -11.90625 C 12.460938 -11.457031 11.898438 -10.960938 11.515625 -10.421875 C 11.128906 -9.878906 10.9375 -9.273438 10.9375 -8.609375 C 10.9375 -8.054688 11.128906 -7.609375 11.515625 -7.265625 C 11.898438 -6.929688 12.472656 -6.679688 13.234375 -6.515625 C 14.003906 -6.359375 14.941406 -6.28125 16.046875 -6.28125 L 21.890625 -6.28125 C 25.609375 -6.28125 28.445312 -5.492188 30.40625 -3.921875 C 32.363281 -2.347656 33.34375 -0.0390625 33.34375 3 C 33.34375 6.863281 31.75 9.835938 28.5625 11.921875 C 25.382812 14.015625 20.804688 15.0625 14.828125 15.0625 Z M 15.09375 10.015625 C 17.601562 10.015625 19.71875 9.769531 21.4375 9.28125 C 23.15625 8.789062 24.453125 8.085938 25.328125 7.171875 C 26.203125 6.265625 26.640625 5.191406 26.640625 3.953125 C 26.640625 2.847656 26.363281 2 25.8125 1.40625 C 25.257812 0.8125 24.429688 0.398438 23.328125 0.171875 C 22.234375 -0.046875 20.867188 -0.15625 19.234375 -0.15625 L 13.90625 -0.15625 C 12.570312 -0.15625 11.394531 0.0507812 10.375 0.46875 C 9.351562 0.894531 8.5625 1.503906 8 2.296875 C 7.445312 3.085938 7.171875 4.046875 7.171875 5.171875 C 7.171875 6.722656 7.859375 7.914062 9.234375 8.75 C 10.609375 9.59375 12.5625 10.015625 15.09375 10.015625 Z M 16.5 -16.390625 C 18.601562 -16.390625 20.164062 -16.960938 21.1875 -18.109375 C 22.207031 -19.265625 22.71875 -20.894531 22.71875 -23 C 22.71875 -25.28125 22.191406 -26.992188 21.140625 -28.140625 C 20.085938 -29.285156 18.53125 -29.859375 16.46875 -29.859375 C 14.445312 -29.859375 12.910156 -29.273438 11.859375 -28.109375 C 10.816406 -26.953125 10.296875 -25.226562 10.296875 -22.9375 C 10.296875 -20.875 10.816406 -19.265625 11.859375 -18.109375 C 12.910156 -16.960938 14.457031 -16.390625 16.5 -16.390625 Z M 16.5 -16.390625 "/></g></g></g><g fill="#000000" fill-opacity="1"><g transform="translate(389.682912, 68.728364)"><g><path d="M 22.8125 -34.546875 C 26.632812 -34.546875 29.609375 -33.5625 31.734375 -31.59375 C 33.867188 -29.625 34.9375 -26.460938 34.9375 -22.109375 L 34.9375 0 L 27.75 0 L 27.75 -20.765625 C 27.75 -23.398438 27.207031 -25.375 26.125 -26.6875 C 25.039062 -28.007812 23.363281 -28.671875 21.09375 -28.671875 C 17.8125 -28.671875 15.53125 -27.65625 14.25 -25.625 C 12.976562 -23.601562 12.34375 -20.675781 12.34375 -16.84375 L 12.34375 0 L 5.140625 0 L 5.140625 -33.90625 L 10.75 -33.90625 L 11.765625 -29.3125 L 12.15625 -29.3125 C 12.894531 -30.488281 13.804688 -31.457031 14.890625 -32.21875 C 15.984375 -32.988281 17.207031 -33.566406 18.5625 -33.953125 C 19.925781 -34.347656 21.34375 -34.546875 22.8125 -34.546875 Z M 22.8125 -34.546875 "/></g></g></g><g fill="#000000" fill-opacity="1"><g transform="translate(429.517802, 68.728364)"><g><path d="M 18.4375 -34.546875 C 22.71875 -34.546875 25.957031 -33.59375 28.15625 -31.6875 C 30.351562 -29.789062 31.453125 -26.832031 31.453125 -22.8125 L 31.453125 0 L 26.34375 0 L 24.953125 -4.8125 L 24.71875 -4.8125 C 23.757812 -3.582031 22.769531 -2.566406 21.75 -1.765625 C 20.726562 -0.972656 19.546875 -0.378906 18.203125 0.015625 C 16.867188 0.410156 15.242188 0.609375 13.328125 0.609375 C 11.304688 0.609375 9.5 0.238281 7.90625 -0.5 C 6.3125 -1.25 5.050781 -2.390625 4.125 -3.921875 C 3.207031 -5.453125 2.75 -7.390625 2.75 -9.734375 C 2.75 -13.222656 4.050781 -15.847656 6.65625 -17.609375 C 9.257812 -19.367188 13.195312 -20.335938 18.46875 -20.515625 L 24.34375 -20.734375 L 24.34375 -22.515625 C 24.34375 -24.859375 23.796875 -26.53125 22.703125 -27.53125 C 21.609375 -28.53125 20.070312 -29.03125 18.09375 -29.03125 C 16.40625 -29.03125 14.765625 -28.785156 13.171875 -28.296875 C 11.578125 -27.804688 10.023438 -27.203125 8.515625 -26.484375 L 6.1875 -31.578125 C 7.84375 -32.453125 9.722656 -33.164062 11.828125 -33.71875 C 13.941406 -34.269531 16.144531 -34.546875 18.4375 -34.546875 Z M 24.3125 -16.203125 L 19.9375 -16.046875 C 16.34375 -15.921875 13.820312 -15.304688 12.375 -14.203125 C 10.925781 -13.109375 10.203125 -11.597656 10.203125 -9.671875 C 10.203125 -8.003906 10.703125 -6.785156 11.703125 -6.015625 C 12.703125 -5.253906 14.019531 -4.875 15.65625 -4.875 C 18.144531 -4.875 20.207031 -5.582031 21.84375 -7 C 23.488281 -8.414062 24.3125 -10.503906 24.3125 -13.265625 Z M 24.3125 -16.203125 "/></g></g></g><g fill="#000000" fill-opacity="1"><g transform="translate(465.892777, 68.728364)"><g><path d="M 12.375 0 L 5.140625 0 L 5.140625 -47.65625 L 12.375 -47.65625 Z M 12.375 0 "/></g></g></g><g fill="#000000" fill-opacity="1"><g transform="translate(500.960536, 68.728364)"><g><path d="M 5.875 0 L 5.875 -44.765625 L 13.234375 -44.765625 L 13.234375 0 Z M 5.875 0 "/></g></g></g><g fill="#000000" fill-opacity="1"><g transform="translate(520.097208, 68.728364)"><g><path d="M 22.8125 -34.546875 C 26.632812 -34.546875 29.609375 -33.5625 31.734375 -31.59375 C 33.867188 -29.625 34.9375 -26.460938 34.9375 -22.109375 L 34.9375 0 L 27.75 0 L 27.75 -20.765625 C 27.75 -23.398438 27.207031 -25.375 26.125 -26.6875 C 25.039062 -28.007812 23.363281 -28.671875 21.09375 -28.671875 C 17.8125 -28.671875 15.53125 -27.65625 14.25 -25.625 C 12.976562 -23.601562 12.34375 -20.675781 12.34375 -16.84375 L 12.34375 0 L 5.140625 0 L 5.140625 -33.90625 L 10.75 -33.90625 L 11.765625 -29.3125 L 12.15625 -29.3125 C 12.894531 -30.488281 13.804688 -31.457031 14.890625 -32.21875 C 15.984375 -32.988281 17.207031 -33.566406 18.5625 -33.953125 C 19.925781 -34.347656 21.34375 -34.546875 22.8125 -34.546875 Z M 22.8125 -34.546875 "/></g></g></g><g fill="#000000" fill-opacity="1"><g transform="translate(559.932098, 68.728364)"><g><path d="M 27.921875 -9.671875 C 27.921875 -7.453125 27.378906 -5.578125 26.296875 -4.046875 C 25.222656 -2.515625 23.648438 -1.351562 21.578125 -0.5625 C 19.503906 0.21875 16.96875 0.609375 13.96875 0.609375 C 11.59375 0.609375 9.550781 0.441406 7.84375 0.109375 C 6.144531 -0.222656 4.539062 -0.738281 3.03125 -1.4375 L 3.03125 -7.65625 C 4.644531 -6.894531 6.457031 -6.238281 8.46875 -5.6875 C 10.476562 -5.144531 12.378906 -4.875 14.171875 -4.875 C 16.546875 -4.875 18.253906 -5.242188 19.296875 -5.984375 C 20.335938 -6.734375 20.859375 -7.726562 20.859375 -8.96875 C 20.859375 -9.707031 20.644531 -10.367188 20.21875 -10.953125 C 19.800781 -11.535156 19.023438 -12.132812 17.890625 -12.75 C 16.765625 -13.375 15.109375 -14.125 12.921875 -15 C 10.773438 -15.863281 8.96875 -16.722656 7.5 -17.578125 C 6.03125 -18.429688 4.914062 -19.46875 4.15625 -20.6875 C 3.40625 -21.90625 3.03125 -23.460938 3.03125 -25.359375 C 3.03125 -28.359375 4.21875 -30.640625 6.59375 -32.203125 C 8.976562 -33.765625 12.128906 -34.546875 16.046875 -34.546875 C 18.128906 -34.546875 20.09375 -34.332031 21.9375 -33.90625 C 23.789062 -33.488281 25.601562 -32.882812 27.375 -32.09375 L 25.109375 -26.671875 C 23.578125 -27.347656 22.039062 -27.90625 20.5 -28.34375 C 18.957031 -28.78125 17.390625 -29 15.796875 -29 C 13.941406 -29 12.53125 -28.710938 11.5625 -28.140625 C 10.59375 -27.566406 10.109375 -26.75 10.109375 -25.6875 C 10.109375 -24.894531 10.34375 -24.222656 10.8125 -23.671875 C 11.28125 -23.117188 12.085938 -22.566406 13.234375 -22.015625 C 14.390625 -21.460938 16 -20.78125 18.0625 -19.96875 C 20.082031 -19.1875 21.832031 -18.375 23.3125 -17.53125 C 24.800781 -16.6875 25.941406 -15.648438 26.734375 -14.421875 C 27.523438 -13.203125 27.921875 -11.617188 27.921875 -9.671875 Z M 27.921875 -9.671875 "/></g></g></g><g fill="#000000" fill-opacity="1"><g transform="translate(590.458914, 68.728364)"><g><path d="M 17.765625 -5.203125 C 18.703125 -5.203125 19.628906 -5.289062 20.546875 -5.46875 C 21.460938 -5.644531 22.300781 -5.851562 23.0625 -6.09375 L 23.0625 -0.640625 C 22.257812 -0.296875 21.222656 -0.00390625 19.953125 0.234375 C 18.691406 0.484375 17.378906 0.609375 16.015625 0.609375 C 14.097656 0.609375 12.375 0.289062 10.84375 -0.34375 C 9.3125 -0.988281 8.09375 -2.097656 7.1875 -3.671875 C 6.289062 -5.242188 5.84375 -7.421875 5.84375 -10.203125 L 5.84375 -28.421875 L 1.21875 -28.421875 L 1.21875 -31.640625 L 6.1875 -34.171875 L 8.546875 -41.4375 L 13.078125 -41.4375 L 13.078125 -33.90625 L 22.78125 -33.90625 L 22.78125 -28.421875 L 13.078125 -28.421875 L 13.078125 -10.296875 C 13.078125 -8.578125 13.503906 -7.296875 14.359375 -6.453125 C 15.222656 -5.617188 16.359375 -5.203125 17.765625 -5.203125 Z M 17.765625 -5.203125 "/></g></g></g><g fill="#000000" fill-opacity="1"><g transform="translate(615.260034, 68.728364)"><g><path d="M 22.328125 -34.546875 C 22.898438 -34.546875 23.519531 -34.515625 24.1875 -34.453125 C 24.863281 -34.390625 25.445312 -34.304688 25.9375 -34.203125 L 25.265625 -27.46875 C 24.835938 -27.59375 24.3125 -27.6875 23.6875 -27.75 C 23.0625 -27.8125 22.503906 -27.84375 22.015625 -27.84375 C 20.734375 -27.84375 19.507812 -27.628906 18.34375 -27.203125 C 17.175781 -26.785156 16.144531 -26.15625 15.25 -25.3125 C 14.351562 -24.46875 13.648438 -23.410156 13.140625 -22.140625 C 12.628906 -20.878906 12.375 -19.410156 12.375 -17.734375 L 12.375 0 L 5.140625 0 L 5.140625 -33.90625 L 10.78125 -33.90625 L 11.765625 -27.921875 L 12.09375 -27.921875 C 12.769531 -29.128906 13.609375 -30.234375 14.609375 -31.234375 C 15.609375 -32.234375 16.753906 -33.035156 18.046875 -33.640625 C 19.347656 -34.242188 20.773438 -34.546875 22.328125 -34.546875 Z M 22.328125 -34.546875 "/></g></g></g><g fill="#000000" fill-opacity="1"><g transform="translate(642.326934, 68.728364)"><g><path d="M 34.703125 -33.90625 L 34.703125 0 L 29.03125 0 L 28.046875 -4.5625 L 27.65625 -4.5625 C 26.9375 -3.394531 26.023438 -2.425781 24.921875 -1.65625 C 23.828125 -0.894531 22.601562 -0.328125 21.25 0.046875 C 19.90625 0.421875 18.488281 0.609375 17 0.609375 C 14.445312 0.609375 12.265625 0.175781 10.453125 -0.6875 C 8.648438 -1.550781 7.269531 -2.890625 6.3125 -4.703125 C 5.351562 -6.523438 4.875 -8.878906 4.875 -11.765625 L 4.875 -33.90625 L 12.09375 -33.90625 L 12.09375 -13.109375 C 12.09375 -10.472656 12.628906 -8.5 13.703125 -7.1875 C 14.773438 -5.882812 16.445312 -5.234375 18.71875 -5.234375 C 20.894531 -5.234375 22.625 -5.679688 23.90625 -6.578125 C 25.195312 -7.484375 26.113281 -8.8125 26.65625 -10.5625 C 27.195312 -12.320312 27.46875 -14.476562 27.46875 -17.03125 L 27.46875 -33.90625 Z M 34.703125 -33.90625 "/></g></g></g><g fill="#000000" fill-opacity="1"><g transform="translate(682.161825, 68.728364)"><g><path d="M 43.453125 -34.546875 C 47.253906 -34.546875 50.117188 -33.566406 52.046875 -31.609375 C 53.972656 -29.648438 54.9375 -26.503906 54.9375 -22.171875 L 54.9375 0 L 47.75 0 L 47.75 -20.890625 C 47.75 -23.460938 47.25 -25.398438 46.25 -26.703125 C 45.25 -28.015625 43.726562 -28.671875 41.6875 -28.671875 C 38.820312 -28.671875 36.757812 -27.753906 35.5 -25.921875 C 34.25 -24.097656 33.625 -21.445312 33.625 -17.96875 L 33.625 0 L 26.421875 0 L 26.421875 -20.890625 C 26.421875 -22.597656 26.203125 -24.03125 25.765625 -25.1875 C 25.328125 -26.34375 24.660156 -27.210938 23.765625 -27.796875 C 22.867188 -28.378906 21.734375 -28.671875 20.359375 -28.671875 C 18.378906 -28.671875 16.800781 -28.21875 15.625 -27.3125 C 14.457031 -26.414062 13.617188 -25.09375 13.109375 -23.34375 C 12.597656 -21.601562 12.34375 -19.46875 12.34375 -16.9375 L 12.34375 0 L 5.140625 0 L 5.140625 -33.90625 L 10.75 -33.90625 L 11.765625 -29.34375 L 12.15625 -29.34375 C 12.851562 -30.519531 13.71875 -31.488281 14.75 -32.25 C 15.78125 -33.019531 16.925781 -33.59375 18.1875 -33.96875 C 19.457031 -34.351562 20.773438 -34.546875 22.140625 -34.546875 C 24.671875 -34.546875 26.800781 -34.097656 28.53125 -33.203125 C 30.269531 -32.316406 31.570312 -30.96875 32.4375 -29.15625 L 32.984375 -29.15625 C 34.046875 -30.988281 35.523438 -32.34375 37.421875 -33.21875 C 39.316406 -34.101562 41.328125 -34.546875 43.453125 -34.546875 Z M 43.453125 -34.546875 "/></g></g></g><g fill="#000000" fill-opacity="1"><g transform="translate(741.990698, 68.728364)"><g><path d="M 18.65625 -34.546875 C 21.675781 -34.546875 24.265625 -33.921875 26.421875 -32.671875 C 28.585938 -31.429688 30.253906 -29.664062 31.421875 -27.375 C 32.585938 -25.09375 33.171875 -22.359375 33.171875 -19.171875 L 33.171875 -15.3125 L 10.53125 -15.3125 C 10.613281 -12.019531 11.492188 -9.484375 13.171875 -7.703125 C 14.859375 -5.929688 17.222656 -5.046875 20.265625 -5.046875 C 22.429688 -5.046875 24.375 -5.253906 26.09375 -5.671875 C 27.820312 -6.097656 29.609375 -6.71875 31.453125 -7.53125 L 31.453125 -1.6875 C 29.753906 -0.882812 28.023438 -0.300781 26.265625 0.0625 C 24.515625 0.425781 22.414062 0.609375 19.96875 0.609375 C 16.632812 0.609375 13.707031 -0.0351562 11.1875 -1.328125 C 8.664062 -2.628906 6.695312 -4.566406 5.28125 -7.140625 C 3.863281 -9.710938 3.15625 -12.90625 3.15625 -16.71875 C 3.15625 -20.519531 3.796875 -23.742188 5.078125 -26.390625 C 6.367188 -29.046875 8.175781 -31.066406 10.5 -32.453125 C 12.832031 -33.847656 15.550781 -34.546875 18.65625 -34.546875 Z M 18.65625 -29.125 C 16.382812 -29.125 14.550781 -28.390625 13.15625 -26.921875 C 11.757812 -25.453125 10.9375 -23.296875 10.6875 -20.453125 L 26.125 -20.453125 C 26.101562 -22.148438 25.820312 -23.648438 25.28125 -24.953125 C 24.738281 -26.265625 23.921875 -27.285156 22.828125 -28.015625 C 21.734375 -28.753906 20.34375 -29.125 18.65625 -29.125 Z M 18.65625 -29.125 "/></g></g></g><g fill="#000000" fill-opacity="1"><g transform="translate(778.120723, 68.728364)"><g><path d="M 22.8125 -34.546875 C 26.632812 -34.546875 29.609375 -33.5625 31.734375 -31.59375 C 33.867188 -29.625 34.9375 -26.460938 34.9375 -22.109375 L 34.9375 0 L 27.75 0 L 27.75 -20.765625 C 27.75 -23.398438 27.207031 -25.375 26.125 -26.6875 C 25.039062 -28.007812 23.363281 -28.671875 21.09375 -28.671875 C 17.8125 -28.671875 15.53125 -27.65625 14.25 -25.625 C 12.976562 -23.601562 12.34375 -20.675781 12.34375 -16.84375 L 12.34375 0 L 5.140625 0 L 5.140625 -33.90625 L 10.75 -33.90625 L 11.765625 -29.3125 L 12.15625 -29.3125 C 12.894531 -30.488281 13.804688 -31.457031 14.890625 -32.21875 C 15.984375 -32.988281 17.207031 -33.566406 18.5625 -33.953125 C 19.925781 -34.347656 21.34375 -34.546875 22.8125 -34.546875 Z M 22.8125 -34.546875 "/></g></g></g><g fill="#000000" fill-opacity="1"><g transform="translate(817.955614, 68.728364)"><g><path d="M 17.765625 -5.203125 C 18.703125 -5.203125 19.628906 -5.289062 20.546875 -5.46875 C 21.460938 -5.644531 22.300781 -5.851562 23.0625 -6.09375 L 23.0625 -0.640625 C 22.257812 -0.296875 21.222656 -0.00390625 19.953125 0.234375 C 18.691406 0.484375 17.378906 0.609375 16.015625 0.609375 C 14.097656 0.609375 12.375 0.289062 10.84375 -0.34375 C 9.3125 -0.988281 8.09375 -2.097656 7.1875 -3.671875 C 6.289062 -5.242188 5.84375 -7.421875 5.84375 -10.203125 L 5.84375 -28.421875 L 1.21875 -28.421875 L 1.21875 -31.640625 L 6.1875 -34.171875 L 8.546875 -41.4375 L 13.078125 -41.4375 L 13.078125 -33.90625 L 22.78125 -33.90625 L 22.78125 -28.421875 L 13.078125 -28.421875 L 13.078125 -10.296875 C 13.078125 -8.578125 13.503906 -7.296875 14.359375 -6.453125 C 15.222656 -5.617188 16.359375 -5.203125 17.765625 -5.203125 Z M 17.765625 -5.203125 "/></g></g></g><g fill="#000000" fill-opacity="1"><g transform="translate(842.756722, 68.728364)"><g><path d="M 27.921875 -9.671875 C 27.921875 -7.453125 27.378906 -5.578125 26.296875 -4.046875 C 25.222656 -2.515625 23.648438 -1.351562 21.578125 -0.5625 C 19.503906 0.21875 16.96875 0.609375 13.96875 0.609375 C 11.59375 0.609375 9.550781 0.441406 7.84375 0.109375 C 6.144531 -0.222656 4.539062 -0.738281 3.03125 -1.4375 L 3.03125 -7.65625 C 4.644531 -6.894531 6.457031 -6.238281 8.46875 -5.6875 C 10.476562 -5.144531 12.378906 -4.875 14.171875 -4.875 C 16.546875 -4.875 18.253906 -5.242188 19.296875 -5.984375 C 20.335938 -6.734375 20.859375 -7.726562 20.859375 -8.96875 C 20.859375 -9.707031 20.644531 -10.367188 20.21875 -10.953125 C 19.800781 -11.535156 19.023438 -12.132812 17.890625 -12.75 C 16.765625 -13.375 15.109375 -14.125 12.921875 -15 C 10.773438 -15.863281 8.96875 -16.722656 7.5 -17.578125 C 6.03125 -18.429688 4.914062 -19.46875 4.15625 -20.6875 C 3.40625 -21.90625 3.03125 -23.460938 3.03125 -25.359375 C 3.03125 -28.359375 4.21875 -30.640625 6.59375 -32.203125 C 8.976562 -33.765625 12.128906 -34.546875 16.046875 -34.546875 C 18.128906 -34.546875 20.09375 -34.332031 21.9375 -33.90625 C 23.789062 -33.488281 25.601562 -32.882812 27.375 -32.09375 L 25.109375 -26.671875 C 23.578125 -27.347656 22.039062 -27.90625 20.5 -28.34375 C 18.957031 -28.78125 17.390625 -29 15.796875 -29 C 13.941406 -29 12.53125 -28.710938 11.5625 -28.140625 C 10.59375 -27.566406 10.109375 -26.75 10.109375 -25.6875 C 10.109375 -24.894531 10.34375 -24.222656 10.8125 -23.671875 C 11.28125 -23.117188 12.085938 -22.566406 13.234375 -22.015625 C 14.390625 -21.460938 16 -20.78125 18.0625 -19.96875 C 20.082031 -19.1875 21.832031 -18.375 23.3125 -17.53125 C 24.800781 -16.6875 25.941406 -15.648438 26.734375 -14.421875 C 27.523438 -13.203125 27.921875 -11.617188 27.921875 -9.671875 Z M 27.921875 -9.671875 "/></g></g></g></svg>